<svg xmlns="http://www.w3.org/2000/svg" width="1900" height="1460" viewBox="0 0 1900 1460">
  <title>Sylvander detailed interaction states</title><defs><style>.bg{fill:#0B0D0F}.pane{fill:#111315;stroke:#343A40}.overlay{fill:#1A1E22;stroke:#4A535C}.t{fill:#ECE7DE;font:14px Menlo,monospace}.h{fill:#ECE7DE;font:700 18px Menlo,monospace}.s{fill:#989B9D;font:12px Menlo,monospace}.a{fill:#E8796A}.b{fill:#75A7E8}.g{fill:#72C7B1}.y{fill:#D9AF62}.r{fill:#E06C75}.line{stroke:#343A40}.accent{stroke:#E8796A;fill:#E8796A08}</style></defs><rect class="bg" width="1900" height="1460"/>
  <text class="h" x="50" y="52"><tspan class="a">◖S◗</tspan> DETAILED INTERACTION STATES</text>
  <g id="approval" transform="translate(50 90)"><rect class="pane" width="870" height="390" rx="10"/><text class="s y" x="26" y="38">01 · PERMISSION</text><text class="h" x="26" y="78">Run cargo test --workspace?</text><text class="s" x="26" y="113">~/Projects/acme-api</text><text class="t" x="26" y="155">Runs project tests and writes build artifacts to target/.</text><line class="line" x1="26" y1="186" x2="844" y2="186"/><rect class="accent" x="26" y="208" width="818" height="44" rx="5"/><text class="t" x="43" y="236"><tspan class="a">› 1</tspan>  Allow once</text><text class="t" x="43" y="283">  2  Allow commands beginning with “cargo test”</text><text class="t" x="43" y="327">  3  Reject with feedback</text><text class="s" x="26" y="366">↑↓ choose · enter confirm · esc reject</text></g>
  <g id="ask-user" transform="translate(980 90)"><rect class="pane" width="870" height="390" rx="10"/><text class="s b" x="26" y="38">02 · ASK USER / MULTI SELECT</text><text class="h" x="26" y="78">Which compatibility targets matter?</text><text class="t" x="26" y="129"><tspan class="g">✓</tspan> macOS 15+</text><text class="t" x="26" y="171"><tspan class="g">✓</tspan> Linux / Wayland</text><text class="t" x="26" y="213"><tspan class="s">○</tspan> Windows preview</text><text class="t" x="26" y="255"><tspan class="s">○</tspan> Web/WASM</text><line class="line" x1="26" y1="286" x2="844" y2="286"/><text class="s" x="26" y="326">space toggle · enter answer · f free text · esc defer</text></g>
  <g id="plan-edit" transform="translate(50 520)"><rect class="pane" width="870" height="390" rx="10"/><text class="s b" x="26" y="38">03 · PLAN REVIEW / EDIT</text><text class="h" x="26" y="78">Implementation plan</text><text class="t g" x="26" y="126">✓ 1  Inspect authentication boundary</text><rect class="accent" x="18" y="144" width="834" height="50" rx="4"/><text class="t b" x="26" y="176">● 2  Define shared identity contract</text><text class="t" x="26" y="224">○ 3  Implement JWT verification</text><text class="t" x="26" y="266">○ 4  Add integration coverage</text><text class="t" x="26" y="308">○ 5  Run workspace verification</text><line class="line" x1="26" y1="332" x2="844" y2="332"/><text class="s" x="26" y="365">enter approve · e edit selected · a add step · d delete · esc cancel</text></g>
  <g id="diff-inspect" transform="translate(980 520)"><rect class="pane" width="870" height="390" rx="10"/><text class="s g" x="26" y="38">04 · DIFF INSPECT / BORDERLESS</text><text class="h" x="26" y="78">src/auth/jwt.rs <tspan class="g">+48</tspan> <tspan class="r">-3</tspan></text><line class="line" x1="26" y1="98" x2="844" y2="98"/><text class="s" x="26" y="136">41 │ <tspan class="g">+ pub struct JwtVerifier {</tspan></text><text class="s" x="26" y="168">42 │ <tspan class="g">+     decoding_key: DecodingKey,</tspan></text><text class="s" x="26" y="200">43 │ <tspan class="g">+     validation: Validation,</tspan></text><text class="s" x="26" y="248">67 │ <tspan class="r">- validate_session_cookie(cookie)</tspan></text><text class="s" x="26" y="280">67 │ <tspan class="g">+ authenticate_request(request).await</tspan></text><line class="line" x1="26" y1="320" x2="844" y2="320"/><text class="s" x="26" y="355">j/k hunk · o file · c copy · esc collapse</text></g>
  <g id="command-palette" transform="translate(50 950)"><rect class="pane" width="870" height="390" rx="10"/><text class="s a" x="26" y="38">05 · COMMAND PALETTE</text><text class="h" x="26" y="76">/mo</text><line class="line" x1="26" y1="96" x2="844" y2="96"/><rect class="accent" x="18" y="114" width="834" height="48" rx="4"/><text class="t" x="30" y="144">/model       <tspan class="s">Change model</tspan></text><text class="t" x="30" y="196">/mode        <tspan class="s">Plan · normal · autonomous</tspan></text><text class="t" x="30" y="248">/memory      <tspan class="s">Inspect project memory</tspan></text><text class="t" x="30" y="300">/permissions <tspan class="s">Review allowed actions</tspan></text><text class="s" x="26" y="362">↑↓ select · enter run · tab complete · esc close</text></g>
  <g id="paste-history" transform="translate(980 950)"><rect class="pane" width="870" height="390" rx="10"/><text class="s a" x="26" y="38">06 · COMPOSER / PASTE + HISTORY</text><text class="h" x="26" y="76">Ask Sylvander…</text><line class="line" x1="26" y1="96" x2="844" y2="96"/><text class="t" x="26" y="140">Review this error and propose a fix:</text><text class="t b" x="26" y="184">▣ pasted text · 84 lines · 6.2 KB</text><text class="s" x="26" y="220">enter expand · x remove · p preview</text><line class="line" x1="26" y1="252" x2="844" y2="252"/><text class="s" x="26" y="288">Ctrl+R history</text><rect class="accent" x="18" y="304" width="834" height="42" rx="4"/><text class="t" x="30" y="331">Add JWT authentication and inspect middleware first</text><text class="s" x="26" y="374">↑↓ older/newer · enter restore · esc keep current draft</text></g>
</svg>
