<svg xmlns="http://www.w3.org/2000/svg" width="1680" height="1040" viewBox="0 0 1680 1040">
  <title>Sylvander Ghostty desktop with left session sidebar</title><defs><style>.bg{fill:#111315}.side{fill:#0D0F11}.t{fill:#ECE7DE;font:15px Menlo,monospace}.h{fill:#ECE7DE;font:700 17px Menlo,monospace}.s{fill:#989B9D;font:13px Menlo,monospace}.x{fill:#666C72;font:11px Menlo,monospace}.a{fill:#E8796A}.b{fill:#75A7E8}.g{fill:#72C7B1}.y{fill:#D9AF62}.line{stroke:#343A40}.sel{fill:#E8796A08}.guide{stroke:#4A535C}</style></defs><rect class="bg" width="1680" height="1040" rx="12"/>
  <g id="native-sidebar"><rect class="side" width="330" height="1040" rx="12"/><line class="line" x1="329" y1="0" x2="329" y2="1040"/><text class="h" x="28" y="48"><tspan class="a">◖S◗</tspan> SYLVANDER</text><text class="s" x="28" y="92">＋ New session</text><text class="s" x="28" y="130">⌕ Search sessions   ⌘K</text><text class="x" x="28" y="184">RECENT</text>
    <g id="session-active" transform="translate(12 202)"><rect class="sel" width="306" height="62" rx="4"/><rect class="a" width="3" height="62" rx="2"/><text class="b" x="17" y="27" font-family="Menlo" font-size="13">◐</text><text class="t" x="43" y="28">auth-refactor</text><text class="x" x="43" y="49">acme-api · working 00:42</text></g>
    <g transform="translate(28 292)"><text class="y" y="0">●</text><text class="t" x="28" y="0">api-review</text><text class="x" x="28" y="22">waiting for approval</text><text class="g" y="72">✓</text><text class="t" x="28" y="72">release-notes</text><text class="x" x="28" y="94">complete · 8m ago</text><text class="t" x="28" y="144">jwt-research</text><text class="x" x="28" y="166">idle · yesterday</text></g>
    <text class="x" x="28" y="520">WORKSPACES</text><text class="s" x="28" y="560">▾ acme-api</text><text class="s" x="50" y="594">4 sessions</text><text class="s" x="28" y="638">▸ sylvander</text><text class="s" x="28" y="682">▸ notes</text><text class="s" x="28" y="980">⚙ Settings</text><text class="x" x="210" y="980">collapse ⇧⌘S</text>
  </g>
  <g id="active-pty" transform="translate(330 0)"><text class="h" x="54" y="52"><tspan class="a">◖S◗</tspan> Sylvander  auth-refactor</text><text class="s" x="54" y="80">~/Projects/acme-api · feat/auth-refactor</text><text class="s" text-anchor="end" x="1296" y="52">sonnet · plan</text><line class="line" x1="54" y1="106" x2="1296" y2="106"/>
    <g transform="translate(78 154)"><text class="x" y="0">YOU</text><text class="t" y="30">Review the public API before release.</text><text class="x a" y="92">ORACULO</text><text class="t" y="123">I found two compatibility risks. I’m tracing their callers now.</text><text class="b t" y="182">●</text><text class="t" x="28" y="182">Reviewing public surface</text><text class="x" text-anchor="end" x="1194" y="182">00:31</text><line class="guide" x1="7" y1="202" x2="7" y2="280"/><text class="g s" x="30" y="228">✓</text><text class="s" x="58" y="228">Compare exported types</text><text class="b s" x="30" y="268">◐</text><text class="s" x="58" y="268">Trace deprecated method callers</text><text class="x b" text-anchor="end" x="1194" y="268">working…</text></g>
    <g transform="translate(54 866)"><line class="line" x1="0" y1="0" x2="1242" y2="0"/><text class="s" x="14" y="42">Ask Sylvander…</text><text class="x" x="14" y="68">Draft persists when switching sidebar sessions.</text><line class="line" x1="0" y1="88" x2="1242" y2="88"/></g><text class="s b" x="54" y="1000">working</text><text class="s" x="130" y="1000">· context 31% · 2 tools</text><text class="x" text-anchor="end" x="1296" y="1000">esc interrupt · ctrl+t tasks</text>
  </g>
</svg>
