<svg xmlns="http://www.w3.org/2000/svg" width="1900" height="1280" viewBox="0 0 1900 1280">
  <title>Sylvander transcript navigation checkpoint fork context</title><defs><style>.bg{fill:#0B0D0F}.p{fill:#111315;stroke:#343A40}.t{fill:#ECE7DE;font:14px Menlo,monospace}.h{fill:#ECE7DE;font:700 18px Menlo,monospace}.s{fill:#989B9D;font:12px Menlo,monospace}.x{fill:#666C72;font:11px Menlo,monospace}.a{fill:#E8796A}.b{fill:#75A7E8}.g{fill:#72C7B1}.y{fill:#D9AF62}.r{fill:#E06C75}.line{stroke:#343A40}.sel{fill:#E8796A08;stroke:#E8796A}</style></defs><rect class="bg" width="1900" height="1280"/><text class="h" x="50" y="52"><tspan class="a">◖S◗</tspan> TRANSCRIPT NAVIGATION · CHECKPOINT / FORK / CONTEXT</text>
  <g id="search" transform="translate(50 90)"><rect class="p" width="900" height="520" rx="10"/><text class="s b" x="26" y="38">01 · SEMANTIC SEARCH</text><text class="t" x="26" y="80">⌕ authentication  kind:diff  file:src/auth/*</text><line class="line" x1="26" y1="104" x2="874" y2="104"/><text class="x" x="26" y="140">7 matches · turn 12–38</text><rect class="sel" x="18" y="162" width="864" height="74" rx="4"/><text class="g t" x="34" y="192">Edited src/auth/jwt.rs  +48 -3</text><text class="s" x="34" y="218">Turn 27 · “authentication” in added verifier</text><text class="t" x="34" y="274">Agent: reuse the existing authentication boundary…</text><text class="s" x="34" y="300">Turn 14 · assistant message</text><text class="t" x="34" y="352">Search “authentication” in src/</text><text class="s" x="34" y="378">Turn 12 · tool result · 23 matches</text><line class="line" x1="26" y1="414" x2="874" y2="414"/><text class="s" x="26" y="454">enter jump · n/p match · u user turn · f failure · esc restore position</text><text class="b s" x="26" y="490">3 new events · return to live</text></g>
  <g id="checkpoint" transform="translate(1000 90)"><rect class="p" width="850" height="520" rx="10"/><text class="s g" x="26" y="38">02 · CHECKPOINT</text><text class="h" x="26" y="80">Auth boundary agreed</text><text class="t" x="26" y="128">Session cursor    turn 27</text><text class="t" x="26" y="164">Plan              2 / 5 complete</text><text class="t" x="26" y="200">Workspace         2 changed files</text><text class="t" x="26" y="236">Verification      18 auth tests passed</text><text class="t" x="26" y="272">Context summary   saved</text><line class="line" x1="26" y1="310" x2="824" y2="310"/><text class="s" x="26" y="350">Fork options</text><rect class="sel" x="18" y="370" width="814" height="42" rx="4"/><text class="t" x="34" y="397"><tspan class="a">›</tspan> New worktree from checkpoint commit</text><text class="t" x="34" y="444">  Same current workspace state</text><text class="t" x="34" y="482">  Conversation-only fork</text></g>
  <g id="context" transform="translate(50 660)"><rect class="p" width="900" height="540" rx="10"/><text class="s y" x="26" y="38">03 · CONTEXT + COMPACTION</text><text class="h" x="26" y="82">118k / 164k usable · 72%</text><rect fill="#1A1E22" x="26" y="106" width="848" height="10" rx="5"/><rect fill="#D9AF62" x="26" y="106" width="611" height="10" rx="5"/><text class="t" x="26" y="164">System instructions       12k</text><text class="t" x="26" y="200">Durable summary           18k</text><text class="t" x="26" y="236">Recent turns              61k</text><text class="t" x="26" y="272">Tool artifacts            19k</text><text class="t" x="26" y="308">Attachments                8k</text><line class="line" x1="26" y1="340" x2="874" y2="340"/><text class="y t" x="26" y="382">Compaction planned after this turn</text><text class="s" x="26" y="416">Retain decisions, active plan, failures, diffs, and recent turns.</text><text class="s" x="26" y="446">Collapse completed tool detail into checkpoint summary.</text><text class="s" x="26" y="492">p preview · c compact now · m switch model · f fork session</text></g>
  <g id="model-picker" transform="translate(1000 660)"><rect class="p" width="850" height="540" rx="10"/><text class="s a" x="26" y="38">04 · MODEL + MODE</text><text class="h" x="26" y="80">Choose model</text><rect class="sel" x="18" y="106" width="814" height="74" rx="4"/><text class="t" x="34" y="136"><tspan class="a">›</tspan> Claude Sonnet 5</text><text class="s" x="56" y="162">200k · tools · thinking · images · available</text><text class="t" x="34" y="220">GPT-5 Codex</text><text class="s" x="56" y="246">272k · tools · reasoning · available</text><text class="t" x="34" y="304">Local Qwen Coder</text><text class="s" x="56" y="330">64k · tools · offline · context too small for current turn</text><line class="line" x1="26" y1="366" x2="824" y2="366"/><text class="s" x="26" y="406">Mode</text><text class="t" x="26" y="442">Plan · inspect and agree before mutation</text><text class="t" x="26" y="476">Normal · collaborate with scoped approvals</text><text class="t" x="26" y="510">Autonomous · execute within pre-approved policy</text></g>
</svg>
