<svg xmlns="http://www.w3.org/2000/svg" width="1900" height="1320" viewBox="0 0 1900 1320">
  <title>Sylvander resilience diagnostics performance trust</title><defs><style>.bg{fill:#0B0D0F}.p{fill:#111315;stroke:#343A40}.t{fill:#ECE7DE;font:14px Menlo,monospace}.h{fill:#ECE7DE;font:700 18px Menlo,monospace}.s{fill:#989B9D;font:12px Menlo,monospace}.x{fill:#666C72;font:11px Menlo,monospace}.a{fill:#E8796A}.b{fill:#75A7E8}.g{fill:#72C7B1}.y{fill:#D9AF62}.r{fill:#E06C75}.line{stroke:#343A40}.sel{fill:#E8796A08;stroke:#E8796A}.pill{fill:#1A1E22;stroke:#4A535C}</style></defs><rect class="bg" width="1900" height="1320"/><text class="h" x="50" y="52"><tspan class="a">◖S◗</tspan> RESILIENCE · OPERATIONS / PERFORMANCE / TRUST</text>
  <g id="reconnect" transform="translate(50 90)"><rect class="p" width="880" height="500" rx="10"/><text class="s y" x="26" y="38">01 · SERVER DISCONNECTED</text><text class="y h" x="26" y="84">Reconnecting in 2s · attempt 3</text><text class="s" x="26" y="122">Transcript, session identity, and draft are preserved.</text><line class="line" x1="26" y1="154" x2="854" y2="154"/><text class="t" x="26" y="198">Last durable event    tool result · cursor 8f21:184</text><text class="t" x="26" y="238">Uncertain action      deploy command may continue remotely</text><text class="t" x="26" y="278">Queued draft          1 prompt · 2 attachments</text><rect class="sel" x="18" y="318" width="844" height="44" rx="4"/><text class="t" x="34" y="346"><tspan class="a">›</tspan> Retry now</text><text class="t" x="34" y="394">  Work on draft offline</text><text class="t" x="34" y="438">  Open diagnostics</text><text class="s" x="26" y="478">External actions are reconciled, never blindly replayed.</text></g>
  <g id="diagnostics" transform="translate(980 90)"><rect class="p" width="870" height="500" rx="10"/><text class="s b" x="26" y="38">02 · DIAGNOSTICS</text><text class="h" x="26" y="82">System health</text><text class="g t" x="26" y="128">✓ TUI         v0.1 · renderer 60fps</text><text class="r t" x="26" y="168">! Server      unavailable · socket timeout</text><text class="g t" x="26" y="208">✓ Storage     SQLite healthy · 42ms</text><text class="y t" x="26" y="248">! Provider    rate limited · retry 18s</text><text class="g t" x="26" y="288">✓ Terminal    truecolor · Unicode · images</text><line class="line" x1="26" y1="324" x2="844" y2="324"/><text class="s" x="26" y="364">Session 8f21 · macOS 26 · Ghostty/Sylvander</text><text class="s" x="26" y="400">Secrets redacted · 6 recent errors included</text><text class="t" x="26" y="450">Copy redacted bundle   Save…   Restart safe mode</text></g>
  <g id="performance" transform="translate(50 640)"><rect class="p" width="880" height="600" rx="10"/><text class="s b" x="26" y="38">03 · DEGRADED PERFORMANCE</text><text class="b h" x="26" y="84">Output continues · display catching up</text><text class="t" x="26" y="130">Buffered events       1,284</text><text class="t" x="26" y="170">Tool output rate      8,420 lines/s</text><text class="t" x="26" y="210">Renderer              18 fps</text><text class="t" x="26" y="250">Transcript index      healthy</text><line class="line" x1="26" y1="286" x2="854" y2="286"/><text class="s" x="26" y="330">Live output switched to bounded tail.</text><text class="s" x="26" y="364">Complete output is stored as artifact tool-output-184.log.</text><text class="s" x="26" y="398">Sidebar updates are batched; selection will not move.</text><rect class="sel" x="18" y="438" width="844" height="44" rx="4"/><text class="t" x="34" y="466"><tspan class="a">›</tspan> Keep following live tail</text><text class="t" x="34" y="512">  Pause display updates</text><text class="t" x="34" y="556">  Open durable output artifact</text></g>
  <g id="trust" transform="translate(980 640)"><rect class="p" width="870" height="600" rx="10"/><text class="s a" x="26" y="38">04 · TRUST + COMPLETION EVIDENCE</text><text class="h" x="26" y="82">Execution environment</text><text class="t" x="26" y="126">Workspace     ~/Projects/acme-api</text><text class="t" x="26" y="166">Sandbox       workspace-write</text><text class="t" x="26" y="206">Network       restricted</text><text class="t" x="26" y="246">Approval      on request</text><text class="t" x="26" y="286">MCP           docs-server · read-only · trusted</text><text class="y t" x="26" y="336">! Web content marked untrusted · injection guard active</text><line class="line" x1="26" y1="372" x2="844" y2="372"/><text class="g h" x="26" y="418">✓ Verified completion</text><text class="t" x="26" y="458">18 auth tests passed · cargo test auth · 8.4s</text><text class="t" x="26" y="498">2 files changed · +48 -3 · diff inspected</text><text class="s" x="26" y="548">View evidence · export report · create checkpoint</text></g>
</svg>
