<svg xmlns="http://www.w3.org/2000/svg" width="1800" height="1280" viewBox="0 0 1800 1280"><title>Sylvander immersive turn rhythm</title><defs><style>.bg{fill:#111315}.t{fill:#ECE7DE;font:15px Menlo}.h{fill:#ECE7DE;font:700 18px Menlo}.s{fill:#989B9D;font:13px Menlo}.x{fill:#666C72;font:11px Menlo}.a{fill:#E8796A}.b{fill:#75A7E8}.g{fill:#72C7B1}.p{fill:#B59BE6}.line{stroke:#343A40}.guide{stroke:#4A535C}</style></defs><rect class="bg" width="1800" height="1280"/><text class="h" x="55" y="54"><tspan class="a">◖S◗</tspan> IMMERSIVE TURN RHYTHM · LIVE → SETTLED → INSPECTED</text>
<g id="live" transform="translate(120 110)"><text class="x b" y="0">01 · LIVE TURN</text><text class="a h" y="54">›</text><text class="t" x="38" y="54">Inspect the current authentication flow before editing.</text><text class="a h" y="126">◖S◗</text><text class="t" x="54" y="126">I’ll trace the existing boundary and its callers.</text><text class="p s" x="54" y="176">⌁ Considering middleware, route guards, and session identity…</text><text class="b t" x="54" y="232">● Exploring authentication</text><text class="x" text-anchor="end" x="1460" y="232">00:12</text><line class="guide" x1="62" y1="254" x2="62" y2="374"/><text class="g s" x="88" y="280">✓</text><text class="s" x="120" y="280">Read</text><text class="s" x="220" y="280">src/http/router.rs</text><text class="g s" x="88" y="326">✓</text><text class="s" x="120" y="326">Read</text><text class="s" x="220" y="326">src/auth/mod.rs</text><text class="b s" x="88" y="372">◐</text><text class="s" x="120" y="372">Search</text><text class="s" x="220" y="372">AuthenticatedUser callers</text><text class="t" x="54" y="442">The cookie flow already exposes a reusable identity boundary█</text></g>
<line class="line" x1="120" y1="610" x2="1680" y2="610"/>
<g id="settled" transform="translate(120 670)"><text class="x g" y="0">02 · SETTLED IN TRANSCRIPT</text><text class="a h" y="56">◖S◗</text><text class="t" x="54" y="56">The cookie flow already exposes a reusable identity boundary.</text><text class="t" x="54" y="88">JWT support can implement the same contract without changing routes.</text><text class="g s" x="54" y="142">✓ Explored authentication · 3 files · 14 matches · 12s</text><text class="p s" x="54" y="184">⌁ Considered 3 approaches · 8s</text><text class="h" x="54" y="246">Plan</text><text class="g s" x="54" y="288">✓ Inspect authentication boundary</text><text class="b s" x="54" y="326">● Define shared identity contract</text><text class="s" x="54" y="364">  Implement verifier · Add tests · Verify workspace</text></g>
<g id="inspected" transform="translate(980 670)"><text class="x b" y="0">03 · EXPLICIT INSPECTION</text><text class="b s" y="56">▾ Explored authentication</text><text class="x" text-anchor="end" x="700" y="56">12s</text><text class="g s" x="20" y="102">✓ Read</text><text class="s" x="130" y="102">router.rs</text><text class="x" text-anchor="end" x="700" y="102">126 lines</text><text class="g s" x="20" y="142">✓ Read</text><text class="s" x="130" y="142">auth/mod.rs</text><text class="x" text-anchor="end" x="700" y="142">82 lines</text><text class="g s" x="20" y="182">✓ Search</text><text class="s" x="130" y="182">AuthenticatedUser</text><text class="x" text-anchor="end" x="700" y="182">14 matches</text><text class="x" y="236">enter select · ctrl+o collapse · c copy evidence</text></g></svg>
