<svg xmlns="http://www.w3.org/2000/svg" width="1900" height="1320" viewBox="0 0 1900 1320"><title>Sylvander composer UI states</title><defs><style>.bg{fill:#0B0D0F}.p{fill:#111315;stroke:#343A40}.t{fill:#ECE7DE;font:14px Menlo}.h{fill:#ECE7DE;font:700 18px Menlo}.s{fill:#989B9D;font:12px Menlo}.x{fill:#666C72;font:11px Menlo}.a{fill:#E8796A}.b{fill:#75A7E8}.g{fill:#72C7B1}.y{fill:#D9AF62}.line{stroke:#343A40}.focus{fill:#E8796A08;stroke:#E8796A}.token{fill:#1A1E22;stroke:#4A535C}</style></defs><rect class="bg" width="1900" height="1320"/><text class="h" x="50" y="52"><tspan class="a">◖S◗</tspan> COMPOSER MICRO-INTERACTIONS</text>
<g id="idle-focus" transform="translate(50 90)"><rect class="p" width="880" height="360" rx="10"/><text class="s" x="26" y="38">01 · IDLE</text><line class="line" x1="26" y1="80" x2="854" y2="80"/><text class="s" x="38" y="122">Ask Sylvander…</text><line class="line" x1="26" y1="154" x2="854" y2="154"/><text class="x" x="26" y="194">plan · sonnet · context 24%</text><text class="s a" x="26" y="246">02 · FOCUSED</text><line class="line" x1="26" y1="274" x2="854" y2="274"/><rect class="a" x="26" y="288" width="3" height="44"/><text class="t" x="42" y="316">Ask Sylvander…│</text><line class="line" x1="26" y1="342" x2="854" y2="342"/></g>
<g id="multiline-steer" transform="translate(980 90)"><rect class="p" width="870" height="360" rx="10"/><text class="s b" x="26" y="38">03 · MULTILINE</text><rect class="focus" x="20" y="70" width="830" height="110" rx="5"/><text class="t" x="38" y="104">Review the current authentication flow.</text><text class="t" x="38" y="136">Do not edit files until the plan is approved.│</text><text class="x" x="38" y="166">⇧Enter newline · Enter send</text><text class="s b" x="26" y="230">04 · STEERING</text><text class="b t" x="26" y="270">● Steer current turn</text><rect class="b" x="26" y="288" width="3" height="44"/><text class="t" x="42" y="316">Reuse the existing AuthenticatedUser type.│</text><text class="x" x="26" y="348">Current tool finishes before guidance is consumed.</text></g>
<g id="paste" transform="translate(50 500)"><rect class="p" width="880" height="360" rx="10"/><text class="s y" x="26" y="38">05 · LARGE PASTE + ATTACHMENT</text><rect class="token" x="26" y="72" width="300" height="38" rx="5"/><text class="t" x="42" y="97">▣ error.log · 84 lines  ×</text><rect class="token" x="344" y="72" width="270" height="38" rx="5"/><text class="t" x="360" y="97">@file auth/mod.rs  ×</text><line class="line" x1="26" y1="136" x2="854" y2="136"/><text class="t" x="38" y="178">Review this failure and propose a minimal fix.│</text><text class="y s" x="38" y="222">! paste contributes ~12k context tokens</text><text class="x" x="38" y="260">p preview · x remove · enter send</text><line class="line" x1="26" y1="298" x2="854" y2="298"/><text class="x" x="26" y="330">normal · sonnet · context 68%</text></g>
<g id="ime-waiting" transform="translate(980 500)"><rect class="p" width="870" height="360" rx="10"/><text class="s a" x="26" y="38">06 · IME COMPOSITION</text><rect class="focus" x="20" y="70" width="830" height="94" rx="5"/><text class="t" x="38" y="106">请先分析现有认证中间件，再提出方<tspan class="a" text-decoration="underline">an</tspan></text><text class="x" x="38" y="146">Enter confirms candidate · prompt cannot send</text><rect class="token" x="430" y="178" width="400" height="86" rx="5"/><text class="t" x="448" y="208">1 案  2 按  3 暗  4 安</text><text class="s" x="448" y="242">方案 · 按照 · 安全</text><text class="s y" x="26" y="304">07 · WAITING DECISION</text><text class="y t" x="26" y="338">● Approval required · composer draft preserved</text></g>
<g id="adaptive-status" transform="translate(50 910)"><rect class="p" width="1800" height="330" rx="10"/><text class="s g" x="26" y="38">08 · ADAPTIVE STATUS</text><text class="t" x="26" y="88">Idle</text><text class="s" x="220" y="88">plan · sonnet · context 24%</text><text class="t" x="26" y="136">Working</text><text class="b s" x="220" y="136">◐ working · 18s · 3 tools</text><text class="t" x="26" y="184">Waiting</text><text class="y s" x="220" y="184">● waiting for approval</text><text class="t" x="26" y="232">Disconnected</text><text class="y s" x="220" y="232">! reconnecting · draft preserved</text><text class="x" x="900" y="88">Right-side hints are contextual, maximum three.</text><text class="x" x="900" y="136">No permanent shortcut manual in the footer.</text></g></svg>
