<svg xmlns="http://www.w3.org/2000/svg" width="1900" height="1280" viewBox="0 0 1900 1280"><title>Sylvander sidebar UI microinteractions</title><defs><style>.bg{fill:#0B0D0F}.p{fill:#111315;stroke:#343A40}.side{fill:#0D0F11}.t{fill:#ECE7DE;font:14px Menlo}.h{fill:#ECE7DE;font:700 18px Menlo}.s{fill:#989B9D;font:12px Menlo}.x{fill:#666C72;font:11px Menlo}.a{fill:#E8796A}.b{fill:#75A7E8}.g{fill:#72C7B1}.y{fill:#D9AF62}.r{fill:#E06C75}.line{stroke:#343A40}.sel{fill:#E8796A08}.hover{fill:#FFFFFF05}.pop{fill:#1A1E22;stroke:#4A535C}</style></defs><rect class="bg" width="1900" height="1280"/><text class="h" x="50" y="52"><tspan class="a">◖S◗</tspan> SIDEBAR MICRO-INTERACTIONS</text>
<g id="expanded" transform="translate(50 90)"><rect class="p" width="560" height="1120" rx="10"/><rect class="side" width="360" height="1120" rx="10"/><text class="h" x="24" y="46"><tspan class="a">◖S◗</tspan> SYLVANDER</text><text class="t" x="24" y="92">＋ New session</text><text class="t" x="24" y="132">⌕ Search</text><text class="x" x="24" y="188">WAITING FOR YOU</text><text class="y t" x="26" y="228">●</text><text class="t" x="56" y="228">API review</text><text class="y s" text-anchor="end" x="332" y="228">1</text><text class="r t" x="26" y="276">!</text><text class="t" x="56" y="276">Production deploy</text><text class="x" x="24" y="330">ACTIVE</text><g transform="translate(12 350)"><rect class="sel" width="336" height="66" rx="4"/><rect class="a" width="3" height="66"/><text class="b t" x="18" y="28">◐</text><text class="t" x="48" y="28">Auth refactor</text><text class="a t" text-anchor="end" x="320" y="28">•</text><text class="x" x="48" y="51">working · draft saved</text></g><g transform="translate(12 430)"><rect class="hover" width="336" height="66" rx="4"/><text class="b t" x="18" y="28">◐</text><text class="t" x="48" y="28">TUI design</text><text class="x" x="48" y="51">working · 2 tools</text><text class="s" text-anchor="end" x="320" y="28">•••</text></g><text class="x" x="24" y="536">RECENT</text><text class="t" x="56" y="576">Release notes</text><text class="t" x="56" y="620">JWT research</text><text class="x" x="24" y="676">WORKSPACES</text><text class="t" x="24" y="716">⌄ acme-api</text><text class="s" text-anchor="end" x="332" y="716">12</text><text class="t" x="24" y="760">› sylvander</text><text class="s" text-anchor="end" x="332" y="760">24</text><text class="x" x="24" y="1070">⚙ Settings</text><text class="x" x="200" y="1070">⇧⌘S collapse</text>
<g id="peek" transform="translate(380 410)"><rect class="pop" width="450" height="260" rx="8"/><text class="h" x="22" y="42">TUI design</text><text class="b s" x="22" y="76">◐ Working · 42s</text><text class="t" x="22" y="120">Editing interaction report</text><text class="s" x="22" y="152">2 files changed · draft saved</text><line class="line" x1="22" y1="180" x2="428" y2="180"/><text class="s" x="22" y="218">Enter open · Space pin peek</text></g></g>
<g id="search" transform="translate(960 90)"><rect class="p" width="890" height="530" rx="10"/><text class="s b" x="26" y="38">02 · SEARCH REPLACES LIST IN PLACE</text><text class="t" x="26" y="82">⌕ auth_</text><line class="line" x1="26" y1="106" x2="864" y2="106"/><text class="x" x="26" y="142">ALL SESSIONS · 4 RESULTS</text><rect class="sel" x="18" y="164" width="854" height="64" rx="4"/><text class="b t" x="34" y="192">◐</text><text class="t" x="64" y="192">auth-refactor</text><text class="x" x="64" y="214">acme-api · working</text><text class="t" x="64" y="266">auth-debug</text><text class="x" x="64" y="288">acme-api · yesterday</text><text class="t" x="64" y="340">authentication research</text><text class="x" x="64" y="362">notes · archived</text><text class="t" x="64" y="414">login-auth migration</text><text class="x" x="64" y="436">web · Jul 8</text><line class="line" x1="26" y1="470" x2="864" y2="470"/><text class="s" x="26" y="504">Esc restores previous section and exact scroll position</text></g>
<g id="rail" transform="translate(960 670)"><rect class="p" width="890" height="540" rx="10"/><text class="s a" x="26" y="38">03 · COLLAPSED RAIL + TEMPORARY REVEAL</text><rect class="side" x="26" y="72" width="58" height="420"/><text class="a t" x="43" y="110">S</text><text class="y t" x="43" y="168">●</text><text class="b t" x="43" y="222">◐</text><text class="b t" x="43" y="276">◐</text><text class="g t" x="43" y="330">✓</text><rect class="pop" x="96" y="134" width="360" height="108" rx="6"/><text class="t" x="116" y="170">API review</text><text class="y s" x="116" y="196">waiting for approval</text><text class="x" x="116" y="220">temporary reveal · no transcript reflow</text><text class="t" x="520" y="118">Rail retains only:</text><text class="s" x="520" y="154">brand</text><text class="s" x="520" y="188">semantic session states</text><text class="s" x="520" y="222">active selection</text><text class="s" x="520" y="256">attention priority</text><line class="line" x1="520" y1="292" x2="840" y2="292"/><text class="s" x="520" y="330">Hover edge or ⇧⌘S reveals.</text><text class="s" x="520" y="364">Pin only on explicit action.</text></g></svg>
