<svg xmlns="http://www.w3.org/2000/svg" width="1900" height="1320" viewBox="0 0 1900 1320"><title>Sylvander diff and artifact viewer</title><defs><style>.bg{fill:#0B0D0F}.p{fill:#111315;stroke:#343A40}.t{fill:#ECE7DE;font:14px Menlo}.h{fill:#ECE7DE;font:700 18px Menlo}.s{fill:#989B9D;font:12px Menlo}.x{fill:#666C72;font:11px Menlo}.a{fill:#E8796A}.b{fill:#75A7E8}.g{fill:#72C7B1}.r{fill:#E06C75}.y{fill:#D9AF62}.line{stroke:#343A40}.sel{fill:#E8796A08}.preview{fill:#15191D;stroke:#343A40}</style></defs><rect class="bg" width="1900" height="1320"/><text class="h" x="50" y="52"><tspan class="a">◖S◗</tspan> DIFF + ARTIFACT INSPECTION</text>
<g id="diff" transform="translate(50 90)"><rect class="p" width="1800" height="600" rx="10"/><text class="s g" x="26" y="38">01 · STICKY DIFF VIEWER</text><text class="h" x="26" y="82">src/auth/jwt.rs  <tspan class="g">+48</tspan> <tspan class="r">-3</tspan></text><text class="x" text-anchor="end" x="1770" y="82">1 / 2 files · 2 / 4 hunks</text><line class="line" x1="26" y1="104" x2="1774" y2="104"/><text class="b s" x="26" y="146">@@ verifier</text><text class="x" x="26" y="186"> 41 │</text><text class="g t" x="90" y="186">+ pub struct JwtVerifier {</text><text class="x" x="26" y="224"> 42 │</text><text class="g t" x="90" y="224">+     decoding_key: DecodingKey,</text><text class="x" x="26" y="262"> 43 │</text><text class="g t" x="90" y="262">+     validation: Validation,</text><rect class="a" x="18" y="304" width="3" height="122"/><text class="b s" x="26" y="326">@@ request authentication  · selected hunk</text><text class="x" x="26" y="366"> 67 │</text><text class="r t" x="90" y="366">- validate_session_cookie(cookie)</text><text class="x" x="26" y="404"> 67 │</text><text class="g t" x="90" y="404">+ authenticate_request(request).await</text><line class="line" x1="26" y1="458" x2="1774" y2="458"/><text class="s" x="26" y="500">j/k hunk · n/p file · / search · c copy · o editor · esc collapse</text><text class="x" x="26" y="542">Line-number gutter remains fixed during horizontal scroll. No full-width red/green backgrounds.</text></g>
<g id="command" transform="translate(50 740)"><rect class="p" width="880" height="500" rx="10"/><text class="s b" x="26" y="38">02 · COMMAND OUTPUT</text><text class="h" x="26" y="80">cargo test --workspace</text><text class="g t" x="26" y="120">✓ exit 0 · 138 passed · 8.4s</text><line class="line" x1="26" y1="146" x2="854" y2="146"/><text class="x" x="26" y="184">running 138 tests</text><text class="s" x="26" y="220">test auth::jwt::valid_token ... ok</text><text class="s" x="26" y="254">test auth::jwt::expired_token ... ok</text><text class="s" x="26" y="288">test session::restore ... ok</text><text class="x" x="26" y="334">… 135 lines collapsed</text><line class="line" x1="26" y1="370" x2="854" y2="370"/><text class="s" x="26" y="410">/ search · c copy · s save output · t follow tail</text><text class="x" x="26" y="452">Large live output becomes bounded tail + durable artifact.</text></g>
<g id="artifacts" transform="translate(980 740)"><rect class="p" width="870" height="500" rx="10"/><text class="s a" x="26" y="38">03 · ARTIFACTS</text><rect class="preview" x="26" y="72" width="300" height="190" rx="6"/><path d="M58 220L132 142L188 192L232 130L294 220Z" fill="#343A40"/><circle cx="250" cy="110" r="22" fill="#D9AF62"/><text class="h" x="356" y="104">architecture.png</text><text class="s" x="356" y="142">PNG · 1280×720 · 184 KB</text><text class="s" x="356" y="176">docs/design/architecture.png</text><text class="t" x="356" y="224">Quick Look   Open   Copy path</text><line class="line" x1="26" y1="298" x2="844" y2="298"/><text class="g t" x="26" y="342">▣ design-report.pdf</text><text class="s" x="300" y="342">12 pages · 1.4 MB</text><text class="b t" x="26" y="388">≡ tool-output-184.log</text><text class="s" x="300" y="388">8,420 lines · 664 KB</text><text class="t" x="26" y="444">Terminal preview is enhancement; metadata and path are canonical.</text></g></svg>
