<svg xmlns="http://www.w3.org/2000/svg" width="2100" height="1480" viewBox="0 0 2100 1480"><title>Sylvander Vector Core applied to TUI and Ghostty</title><defs><style>.bg{fill:#090B0E}.canvas{fill:#0D1014}.side{fill:#090C10}.t{fill:#F0ECE4;font:15px Menlo}.h{fill:#F0ECE4;font:700 18px Menlo}.s{fill:#9299A5;font:12px Menlo}.x{fill:#626A76;font:11px Menlo}.v{fill:#9B8CFF}.c{fill:#FF806F}.q{fill:#6DD6E8}.g{fill:#74D6B7}.line{stroke:#2C323B}.guide{stroke:#38414D}.sel{fill:#9B8CFF0A}.focus{fill:#FF806F08;stroke:#FF806F}</style><symbol id="mark" viewBox="0 0 270 240"><path d="M20 120L72 50H168L220 120L168 190H72L20 120Z" fill="none" stroke="#9B8CFF" stroke-width="8" stroke-linejoin="round"/><path d="M168 68L240 120L168 172" fill="none" stroke="#6DD6E8" stroke-width="8" stroke-linecap="round" stroke-linejoin="round"/><path d="M90 120L120 90L150 120L120 150Z" fill="#FF806F"/><circle cx="120" cy="120" r="9" fill="#F0ECE4"/></symbol></defs><rect class="bg" width="2100" height="1480"/>
<g id="welcome" transform="translate(50 60)"><text class="v t" x="0" y="0">01 · SESSION ENTRY</text><rect class="canvas" y="30" width="880" height="620" rx="12"/><use href="#mark" x="270" y="125" width="210" height="180"/><text x="490" y="228" fill="#F0ECE4" font-family="Menlo" font-size="30" font-weight="700" letter-spacing="3">SYLVANDER</text><text class="s" x="494" y="260">AGENT WORKSPACE</text><text class="h" text-anchor="middle" x="440" y="350">What should we move forward today?</text><text class="c t" x="260" y="414">›</text><text class="t" x="292" y="414">Open a workspace</text><text class="t" x="292" y="458">Resume a session</text><text class="t" x="292" y="502">Start without a workspace</text><text class="x" text-anchor="middle" x="440" y="574">~/Projects/Sylvander · fable · plan</text></g>
<g id="conversation" transform="translate(980 60)"><text class="v t" x="0" y="0">02 · BRANDED CONVERSATION</text><rect class="canvas" y="30" width="1070" height="620" rx="12"/><text class="v h" x="58" y="78">◆<tspan fill="#6DD6E8">›</tspan>  Sylvander</text><text class="s" x="58" y="106">auth-refactor · ~/Projects/acme-api</text><line class="line" x1="58" y1="130" x2="1012" y2="130"/><text class="c h" x="86" y="184">›</text><text class="t" x="122" y="184">Inspect the authentication boundary before editing.</text><text class="v h" x="86" y="254">◆</text><text class="t" x="122" y="254">I’ll trace the existing contract and its callers.</text><text class="v s" x="122" y="302">◇ Considered middleware, route guards, and session identity</text><text class="q t" x="122" y="360">◐ Exploring authentication</text><line class="guide" x1="130" y1="382" x2="130" y2="466"/><text class="g s" x="158" y="410">✓ Read</text><text class="s" x="280" y="410">src/auth/mod.rs</text><text class="q s" x="158" y="450">◐ Search</text><text class="s" x="280" y="450">AuthenticatedUser callers</text><text class="t" x="122" y="520">The existing flow exposes a reusable identity boundary█</text><line class="line" x1="58" y1="556" x2="1012" y2="556"/><rect class="c" x="58" y="575" width="3" height="42"/><text class="s" x="76" y="601">Ask Sylvander…</text><text class="q s" text-anchor="end" x="1012" y="601">working · 12s · 2 tools</text></g>
<g id="ghostty" transform="translate(50 760)"><text class="v t" x="0" y="0">03 · GHOSTTY AGENT WORKSPACE</text><rect class="canvas" y="30" width="2000" height="620" rx="12"/><rect class="side" y="30" width="380" height="620" rx="12"/><line class="line" x1="380" y1="30" x2="380" y2="650"/><use href="#mark" x="24" y="52" width="56" height="50"/><text class="h" x="90" y="85">SYLVANDER</text><text class="t" x="30" y="142">＋ New session</text><text class="t" x="30" y="182">⌕ Search</text><text class="x" x="30" y="238">WAITING FOR YOU</text><text class="c t" x="34" y="278">›</text><text class="t" x="66" y="278">API review</text><text class="x" x="30" y="332">ACTIVE</text><g transform="translate(12 350)"><rect class="sel" width="356" height="66" rx="4"/><rect class="v" width="3" height="66"/><text class="q t" x="20" y="28">◐</text><text class="t" x="52" y="28">Auth refactor</text><text class="x" x="52" y="50">working · 2 tools</text></g><text class="v t" x="34" y="468">◆</text><text class="t" x="66" y="468">TUI design</text><text class="x" x="30" y="534">RECENT</text><text class="t" x="66" y="574">Release notes</text><text class="x" x="30" y="624">◆ main · ◇ explorer · ◇ tester</text>
<g transform="translate(430 70)"><text class="v h" y="0">◆<tspan fill="#6DD6E8">›</tspan>  auth-refactor</text><text class="s" y="30">~/Projects/acme-api · plan · fable</text><line class="line" x1="0" y1="58" x2="1510" y2="58"/><text class="c h" x="26" y="116">›</text><text class="t" x="62" y="116">Review the current public API.</text><text class="v h" x="26" y="184">◆</text><text class="t" x="62" y="184">I found two compatibility risks and I’m tracing their callers.</text><text class="q t" x="62" y="244">◐ Reviewing public surface</text><text class="g s" x="92" y="288">✓ Compare exported types</text><text class="q s" x="92" y="328">◐ Trace deprecated callers</text><line class="line" x1="0" y1="462" x2="1510" y2="462"/><text class="s" x="14" y="502">Ask Sylvander…</text><text class="q s" text-anchor="end" x="1510" y="502">working · context 31%</text></g></g></svg>
