<svg xmlns="http://www.w3.org/2000/svg" width="2000" height="1320" viewBox="0 0 2000 1320"><title>Convergence Core final brand applied to Sylvander TUI</title><defs><style>.bg{fill:#090B0E}.cv{fill:#0D1014}.side{fill:#090C10}.t{fill:#F0ECE4;font:15px Menlo}.h{fill:#F0ECE4;font:700 18px Menlo}.s{fill:#9299A5;font:12px Menlo}.x{fill:#626A76;font:11px Menlo}.v{fill:#9B8CFF}.c{fill:#FF806F}.q{fill:#6DD6E8}.g{fill:#74D6B7}.line{stroke:#2C323B}.guide{stroke:#38414D}.sel{fill:#9B8CFF0A}</style><symbol id="mark" viewBox="0 0 300 220"><circle cx="38" cy="48" r="9" fill="#9B8CFF"/><circle cx="38" cy="110" r="9" fill="#9B8CFF"/><circle cx="38" cy="172" r="9" fill="#9B8CFF"/><path d="M50 48C92 48 96 88 132 102M50 110H132M50 172C92 172 96 132 132 118" fill="none" stroke="#9B8CFF" stroke-width="8" stroke-linecap="round"/><path d="M132 110L168 74L204 110L168 146Z" fill="#FF806F"/><circle cx="168" cy="110" r="10" fill="#F0ECE4"/><path d="M204 110H264M238 82L270 110L238 138" fill="none" stroke="#6DD6E8" stroke-width="8" stroke-linecap="round" stroke-linejoin="round"/></symbol></defs><rect class="bg" width="2000" height="1320"/>
<g id="entry" transform="translate(50 60)"><text class="v t" y="0">01 · FINAL SESSION ENTRY</text><rect class="cv" y="30" width="900" height="540" rx="12"/><use href="#mark" x="245" y="105" width="300" height="220"/><text x="540" y="226" fill="#F0ECE4" font-family="Menlo" font-size="30" font-weight="700" letter-spacing="3">SYLVANDER</text><text class="s" x="544" y="256">AGENT WORKSPACE</text><text class="h" text-anchor="middle" x="450" y="350">What should we move forward?</text><text class="c t" x="300" y="410">›</text><text class="t" x="334" y="410">Open a workspace</text><text class="t" x="334" y="452">Resume a session</text><text class="x" text-anchor="middle" x="450" y="514">fable · plan · workspace-write</text></g>
<g id="turn-language" transform="translate(1020 60)"><text class="v t" y="0">02 · AGENT TURN LANGUAGE</text><rect class="cv" y="30" width="930" height="540" rx="12"/><text class="c h" x="60" y="100">›</text><text class="t" x="98" y="100">Review authentication compatibility.</text><text class="v h" x="60" y="174">◆</text><text class="t" x="98" y="174">I’ll trace the contract, delegate caller search, and verify the result.</text><text class="v s" x="98" y="230">◇ explorer  · tracing 14 callers</text><text class="v s" x="98" y="268">◇ tester    · preparing auth suite</text><text class="q t" x="98" y="328">◐ main · coordinating work</text><line class="guide" x1="106" y1="348" x2="106" y2="432"/><text class="g s" x="134" y="378">✓ explorer · report ready</text><text class="q s" x="134" y="420">◐ tester · 11 / 18</text><text class="t" x="98" y="486">The public API has two compatibility risks█</text></g>
<g id="workspace" transform="translate(50 660)"><text class="v t" y="0">03 · MULTI-AGENT GHOSTTY WORKSPACE</text><rect class="cv" y="30" width="1900" height="560" rx="12"/><rect class="side" y="30" width="390" height="560" rx="12"/><line class="line" x1="390" y1="30" x2="390" y2="590"/><use href="#mark" x="18" y="48" width="76" height="56"/><text class="h" x="104" y="82">SYLVANDER</text><text class="x" x="30" y="150">WAITING FOR YOU</text><text class="c t" x="34" y="190">›</text><text class="t" x="66" y="190">API review</text><text class="x" x="30" y="246">ACTIVE</text><g transform="translate(12 264)"><rect class="sel" width="366" height="66" rx="4"/><rect class="v" width="3" height="66"/><text class="q t" x="20" y="28">◐</text><text class="t" x="52" y="28">Auth refactor</text><text class="x" x="52" y="50">main ◆ · 2 subagents ◇◇</text></g><text class="v t" x="34" y="378">◆</text><text class="t" x="66" y="378">TUI design</text><text class="x" x="30" y="452">AGENTS</text><text class="t" x="34" y="492"><tspan class="v">◆</tspan> main</text><text class="t" x="134" y="492"><tspan class="v">◇</tspan> explorer</text><text class="t" x="270" y="492"><tspan class="v">◇</tspan> tester</text>
<g transform="translate(450 76)"><text class="v h" y="0">◆<tspan fill="#6DD6E8">›</tspan> auth-refactor</text><text class="s" y="30">main + 2 subagents · fable · plan</text><line class="line" x1="0" y1="56" x2="1390" y2="56"/><text class="c h" x="26" y="118">›</text><text class="t" x="64" y="118">Review the public API and verify compatibility.</text><text class="v h" x="26" y="190">◆</text><text class="t" x="64" y="190">I’m coordinating caller analysis and tests.</text><text class="v s" x="64" y="244">◇ explorer · 14 callers · ready</text><text class="q s" x="64" y="282">◇ tester · 11 / 18 · running</text><text class="q t" x="64" y="340">◐ main · synthesizing evidence</text><line class="line" x1="0" y1="430" x2="1390" y2="430"/><text class="s" x="14" y="472">Ask Sylvander…</text></g></g></svg>
